<svg xmlns="http://www.w3.org/2000/svg" version="1.1" xmlns:xlink="http://www.w3.org/1999/xlink" xmlns:svgjs="http://svgjs.com/svgjs" width="2000" height="2000" preserveAspectRatio="none" viewBox="0 0 2000 2000"><g mask="url(&quot;#SvgjsMask1163&quot;)" fill="none"><rect width="2000" height="2000" x="0" y="0" fill="url(#SvgjsLinearGradient1164)"></rect><path d="M 0,553 C 133.4,469.2 400.2,159.4 667,134 C 933.8,108.6 1067.4,417.4 1334,426 C 1600.6,434.6 1866.8,226.8 2000,177L2000 2000L0 2000z" fill="#21284f"></path><path d="M 0,1233 C 100,1180.6 300,967.4 500,971 C 700,974.6 800,1282 1000,1251 C 1200,1220 1300,816.4 1500,816 C 1700,815.6 1900,1162.4 2000,1249L2000 2000L0 2000z" fill="#184a7e"></path><path d="M 0,1469 C 66.8,1535.6 200.4,1811.4 334,1802 C 467.6,1792.6 534.4,1435 668,1422 C 801.6,1409 868.4,1696 1002,1737 C 1135.6,1778 1202.4,1593.2 1336,1627 C 1469.6,1660.8 1537.2,1916.2 1670,1906 C 1802.8,1895.8 1934,1642 2000,1576L2000 2000L0 2000z" fill="#2264ab"></path></g><defs><mask id="SvgjsMask1163"><rect width="2000" height="2000" fill="#ffffff"></rect></mask><linearGradient x1="100%" y1="0%" x2="0%" y2="100%" gradientUnits="userSpaceOnUse" id="SvgjsLinearGradient1164"><stop stop-color="#0e2a47" offset="0"></stop><stop stop-color="rgba(43, 83, 135, 1)" offset="1"></stop></linearGradient></defs></svg>